# xmcd CD Database Entry
#
# Track frame offsets:
# 150
# 21285
# 38786
# 56219
# 71841
# 89902
# 107802
# 111282
# 127757
# 142312
# 158590
# 171328
# 186607
# 203266
# 224960
#
# Disc length: 3260 seconds
#
# Revision: 1
# Processed by: cddbd v1.4PL0 Copyright (c) Steve Scherf et al.
# Submitted via: tcd 2.0b
#
DISCID=f00cba0f
DTITLE=Harvey Band - Crossfire
DYEAR=1900
DGENRE=
TTITLE0=The Pilot
TTITLE1=Power Train
TTITLE2=Crossfire
TTITLE3=Last Ride At Malibu
TTITLE4=Vertigo Duck
TTITLE5=Tribute To Little Wing
TTITLE6=Interlude
TTITLE7=Momma's Other Groove
TTITLE8=Flashback
TTITLE9=Sun On The River Rag
TTITLE10=Hayseeds
TTITLE11=First Sign Of Morning
TTITLE12=Beyond The Highlands
TTITLE13=Quest From The Planet Earth
TTITLE14=The Wheel
EXTD=Copyright 1993 Harvey Possemato - The Song Writers Advocate/B
EXTD=MI.
EXTT0=
EXTT1=
EXTT2=
EXTT3=
EXTT4=
EXTT5=
EXTT6=
EXTT7=
EXTT8=
EXTT9=
EXTT10=
EXTT11=
EXTT12=
EXTT13=
EXTT14=
PLAYORDER=
